<svg xmlns="http://www.w3.org/2000/svg" width="401" height="400.26" viewBox="0 0 401 400.26">
  <g id="Group_2" data-name="Group 2" transform="translate(-4101 -1489)">
    <g id="Rectangle_154" data-name="Rectangle 154" transform="translate(4101 1489)" fill="#fff" stroke="#707070" stroke-width="1" opacity="0">
      <rect width="401" height="400" stroke="none"/>
      <rect x="0.5" y="0.5" width="400" height="399" fill="none"/>
    </g>
    <g id="Group_1" data-name="Group 1" transform="translate(0 -486)">
      <g id="Component_2_1" data-name="Component 2 – 1" transform="translate(4296.441 2183.749)">
        <path id="Path_42" data-name="Path 42" d="M866.628,556.113s-6.415,9.032-12.3,9.157S839.5,561.1,839.5,561.1s-5.4-12.036-1.734-16.745a7.853,7.853,0,0,1,7.509,1.234,11.8,11.8,0,0,1,1.988,1.906,6.285,6.285,0,0,0,3.086,2.092c4.2,1.277,9.179-1.723,11.042,1.173a19.7,19.7,0,0,0,3.243,3.84A14.686,14.686,0,0,0,866.628,556.113Z" transform="translate(-692.826 -543.897)" fill="#ffeddc"/>
        <path id="Path_43" data-name="Path 43" d="M686.89,659.655s22.673-54.937,63.483-55.985c0,0,37.674,4.187,39.765,55.985Z" transform="translate(-596.716 -586.966)" fill="#ffeddc"/>
        <path id="Path_44" data-name="Path 44" d="M833.026,595.588s16.355,3.64,21.4,1.5c0,0,.762-6.84-6.125-5.882-4.716.658-7.788-1.609-9.594-2.528C836.155,587.378,832.347,592.727,833.026,595.588Z" transform="translate(-690.547 -573.464)" fill="#db6a1d"/>
        <path id="Path_45" data-name="Path 45" d="M865.349,559.653c-1.048.783-4.259-11.063-4.259-11.063a11.8,11.8,0,0,1,1.988,1.906,6.285,6.285,0,0,0,3.086,2.092C866.168,552.935,866.357,558.888,865.349,559.653Z" transform="translate(-708.627 -546.486)" fill="#e5c1a1"/>
        <path id="Path_46" data-name="Path 46" d="M899.167,566.89c-.232.136-7.8,4.666-8.821,4.666s5.578-8.507,5.578-8.507A19.7,19.7,0,0,0,899.167,566.89Z" transform="translate(-727.352 -556.155)" fill="#e5c1a1"/>
        <path id="Path_47" data-name="Path 47" d="M748.826,673.441c-.422-.358,16.044-24.243,20.578-24.418s14.725,5.235,22.1,5.932,14.528-1.395,15.923,2.964,5.231,19.816,2.861,22.291S757.879,681.193,748.826,673.441Z" transform="translate(-636.5 -616.137)" fill="#f9ddbf"/>
        <path id="Path_48" data-name="Path 48" d="M791.67,1047.07v5.871a2.014,2.014,0,0,1-.461,1.262,2.665,2.665,0,0,1-1.266.844,2.791,2.791,0,0,1-.49.118,3.012,3.012,0,0,1-.476.036H677.659a2.544,2.544,0,0,1-2.689-2.145v-6.1a2.541,2.541,0,0,1,2.689-2.146H788.977a3.027,3.027,0,0,1,.476.036,3.164,3.164,0,0,1,.49.114,2.7,2.7,0,0,1,1.266.848A2.012,2.012,0,0,1,791.67,1047.07Z" transform="translate(-589.058 -885.623)" fill="#ffb93e"/>
        <path id="Path_49" data-name="Path 49" d="M737.008,1055.2H677.369a2.353,2.353,0,0,1-2.4-2.146v-6.1a2.353,2.353,0,0,1,2.4-2.145h52.32A18.207,18.207,0,0,0,737.008,1055.2Z" transform="translate(-589.058 -885.622)" fill="#ffa412"/>
        <rect id="Rectangle_20" data-name="Rectangle 20" width="1.266" height="10.391" transform="translate(187.801 159.187)" fill="#ffa412"/>
        <rect id="Rectangle_21" data-name="Rectangle 21" width="1.266" height="10.391" transform="translate(183.518 159.187)" fill="#ffa412"/>
        <rect id="Rectangle_22" data-name="Rectangle 22" width="1.266" height="10.391" transform="translate(178.383 159.187)" fill="#ffa412"/>
        <rect id="Rectangle_23" data-name="Rectangle 23" width="1.266" height="10.391" transform="translate(170.513 159.187)" fill="#ffa412"/>
        <rect id="Rectangle_24" data-name="Rectangle 24" width="1.266" height="10.391" transform="translate(162.185 159.187)" fill="#ffa412"/>
        <rect id="Rectangle_25" data-name="Rectangle 25" width="1.266" height="10.391" transform="translate(149.427 159.187)" fill="#ffa412"/>
        <rect id="Rectangle_26" data-name="Rectangle 26" width="1.266" height="10.391" transform="translate(137.477 159.187)" fill="#ffa412"/>
        <rect id="Rectangle_27" data-name="Rectangle 27" width="1.266" height="10.391" transform="translate(132.964 159.187)" fill="#ffa412"/>
        <rect id="Rectangle_28" data-name="Rectangle 28" width="1.266" height="10.391" transform="translate(191.878 159.187)" fill="#ffa412"/>
        <rect id="Rectangle_29" data-name="Rectangle 29" width="1.266" height="10.391" transform="translate(194.57 159.187)" fill="#ffa412"/>
        <rect id="Rectangle_30" data-name="Rectangle 30" width="1.266" height="10.391" transform="translate(197.173 159.187)" fill="#ffa412"/>
        <path id="Path_50" data-name="Path 50" d="M992.866,1044.846v10.32a3.024,3.024,0,0,1-.476.036h-.79V1044.81h.79A2.981,2.981,0,0,1,992.866,1044.846Z" transform="translate(-792.471 -885.623)" fill="#ffa412"/>
        <path id="Path_51" data-name="Path 51" d="M997.776,1046.077v8.4a2.663,2.663,0,0,1-1.266.844V1045.23A2.7,2.7,0,0,1,997.776,1046.077Z" transform="translate(-795.625 -885.893)" fill="#ffa412"/>
        <path id="Path_52" data-name="Path 52" d="M758.38,1018v5.868a1.988,1.988,0,0,1-.461,1.262,2.661,2.661,0,0,1-1.262.847,2.845,2.845,0,0,1-.493.118,3.408,3.408,0,0,1-.476.036H644.373a2.55,2.55,0,0,1-2.692-2.146v-6.1a2.548,2.548,0,0,1,2.692-2.145H755.991a.466.466,0,0,1,.1,0h.072a2.823,2.823,0,0,1,.493.114l.068.025.072.025.132.054.079.036.068.036.129.068a1.08,1.08,0,0,1,.136.086l.107.071h0l.068.05a1.82,1.82,0,0,1,.2.172l.054.05.05.057a.987.987,0,0,1,.1.114A1.988,1.988,0,0,1,758.38,1018Z" transform="translate(-567.672 -866.943)" fill="#ffb93e"/>
        <path id="Path_53" data-name="Path 53" d="M703.718,1026.133H644.083a2.352,2.352,0,0,1-2.4-2.145c0-.039,0-.079,0-.118v-5.986a2.356,2.356,0,0,1,2.4-2.145H696.4c.021.086.047.172.072.257A18.189,18.189,0,0,0,703.718,1026.133Z" transform="translate(-561.131 -866.946)" fill="#ffa412"/>
        <rect id="Rectangle_31" data-name="Rectangle 31" width="1.266" height="10.391" transform="translate(175.898 148.796)" fill="#ffa412"/>
        <rect id="Rectangle_32" data-name="Rectangle 32" width="1.266" height="10.391" transform="translate(171.618 148.796)" fill="#ffa412"/>
        <rect id="Rectangle_33" data-name="Rectangle 33" width="1.266" height="10.391" transform="translate(166.479 148.796)" fill="#ffa412"/>
        <rect id="Rectangle_34" data-name="Rectangle 34" width="1.266" height="10.391" transform="translate(158.609 148.796)" fill="#ffa412"/>
        <rect id="Rectangle_35" data-name="Rectangle 35" width="1.266" height="10.391" transform="translate(150.285 148.796)" fill="#ffa412"/>
        <rect id="Rectangle_36" data-name="Rectangle 36" width="1.266" height="10.391" transform="translate(137.523 148.796)" fill="#ffa412"/>
        <rect id="Rectangle_37" data-name="Rectangle 37" width="1.266" height="10.391" transform="translate(131.828 148.796)" fill="#ffa412"/>
        <rect id="Rectangle_38" data-name="Rectangle 38" width="1.266" height="10.391" transform="translate(122.009 148.796)" fill="#ffa412"/>
        <rect id="Rectangle_39" data-name="Rectangle 39" width="1.266" height="10.391" transform="translate(179.974 148.796)" fill="#ffa412"/>
        <rect id="Rectangle_40" data-name="Rectangle 40" width="1.266" height="10.391" transform="translate(182.67 148.796)" fill="#ffa412"/>
        <rect id="Rectangle_41" data-name="Rectangle 41" width="1.266" height="10.391" transform="translate(185.27 148.796)" fill="#ffa412"/>
        <path id="Path_54" data-name="Path 54" d="M959.576,1015.779V1026.1a3.406,3.406,0,0,1-.476.036h-.79V1015.74h.79A2.941,2.941,0,0,1,959.576,1015.779Z" transform="translate(-771.084 -866.947)" fill="#ffa412"/>
        <path id="Path_55" data-name="Path 55" d="M964.492,1017.011v8.389a2.66,2.66,0,0,1-1.262.847V1016.16A2.66,2.66,0,0,1,964.492,1017.011Z" transform="translate(-774.245 -867.217)" fill="#ffa412"/>
        <path id="Path_56" data-name="Path 56" d="M774.5,989.66v5.871a2.013,2.013,0,0,1-.461,1.262,2.7,2.7,0,0,1-1.266.847,3.168,3.168,0,0,1-.49.114,3,3,0,0,1-.476.036H660.488a3.071,3.071,0,0,1-1.241-.257,2.3,2.3,0,0,1-1.43-1.788.856.856,0,0,1,0-.1v-6.1a2.541,2.541,0,0,1,2.689-2.146h111.3a3.019,3.019,0,0,1,.476.036,3.147,3.147,0,0,1,.49.114,2.7,2.7,0,0,1,1.266.847A2.013,2.013,0,0,1,774.5,989.66Z" transform="translate(-578.038 -848.741)" fill="#ffb93e"/>
        <path id="Path_57" data-name="Path 57" d="M719.819,997.79H660.18a2.5,2.5,0,0,1-1.109-.257,2.26,2.26,0,0,1-1.284-1.788.856.856,0,0,1,0-.1v-6.1a2.353,2.353,0,0,1,2.4-2.145H712.5a18.236,18.236,0,0,0,6.958,10.134C719.572,997.625,719.694,997.7,719.819,997.79Z" transform="translate(-572.019 -848.74)" fill="#ffa412"/>
        <rect id="Rectangle_42" data-name="Rectangle 42" width="1.266" height="10.391" transform="translate(181.651 138.659)" fill="#ffa412"/>
        <rect id="Rectangle_43" data-name="Rectangle 43" width="1.266" height="10.391" transform="translate(177.368 138.659)" fill="#ffa412"/>
        <rect id="Rectangle_44" data-name="Rectangle 44" width="1.266" height="10.391" transform="translate(172.233 138.659)" fill="#ffa412"/>
        <rect id="Rectangle_45" data-name="Rectangle 45" width="1.266" height="10.391" transform="translate(164.359 138.659)" fill="#ffa412"/>
        <rect id="Rectangle_46" data-name="Rectangle 46" width="1.266" height="10.391" transform="translate(156.035 138.659)" fill="#ffa412"/>
        <rect id="Rectangle_47" data-name="Rectangle 47" width="1.266" height="10.391" transform="translate(143.277 138.659)" fill="#ffa412"/>
        <rect id="Rectangle_48" data-name="Rectangle 48" width="1.266" height="10.391" transform="translate(131.327 138.659)" fill="#ffa412"/>
        <rect id="Rectangle_49" data-name="Rectangle 49" width="1.266" height="10.391" transform="translate(127.302 138.659)" fill="#ffa412"/>
        <rect id="Rectangle_50" data-name="Rectangle 50" width="1.266" height="10.391" transform="translate(185.727 138.659)" fill="#ffa412"/>
        <rect id="Rectangle_51" data-name="Rectangle 51" width="1.266" height="10.391" transform="translate(188.42 138.659)" fill="#ffa412"/>
        <rect id="Rectangle_52" data-name="Rectangle 52" width="1.266" height="10.391" transform="translate(191.023 138.659)" fill="#ffa412"/>
        <path id="Path_58" data-name="Path 58" d="M975.666,987.436v10.319a3.033,3.033,0,0,1-.476.036h-.79V987.4h.79A3.026,3.026,0,0,1,975.666,987.436Z" transform="translate(-781.421 -848.741)" fill="#ffa412"/>
        <path id="Path_59" data-name="Path 59" d="M980.576,988.667v8.4a2.665,2.665,0,0,1-1.266.844V987.82A2.7,2.7,0,0,1,980.576,988.667Z" transform="translate(-784.575 -849.011)" fill="#ffa412"/>
        <path id="Path_60" data-name="Path 60" d="M781.924,960.592v5.868a2.005,2.005,0,0,1-.461,1.262,2.671,2.671,0,0,1-1.266.847,2.766,2.766,0,0,1-.493.118,3.407,3.407,0,0,1-.476.036H667.912a2.55,2.55,0,0,1-2.692-2.145v-6.1a2.5,2.5,0,0,1,2.374-2.145,3.04,3.04,0,0,1,.318,0H779.227a2.948,2.948,0,0,1,.476.036,2.754,2.754,0,0,1,.493.114,2.7,2.7,0,0,1,1.266.847A2,2,0,0,1,781.924,960.592Z" transform="translate(-582.794 -830.065)" fill="#ffb93e"/>
        <path id="Path_61" data-name="Path 61" d="M727.258,968.724H667.623a2.356,2.356,0,0,1-2.4-2.145v-6.1a2.338,2.338,0,0,1,2.117-2.145,2.458,2.458,0,0,1,.286,0h52.313A18.236,18.236,0,0,0,727.258,968.724Z" transform="translate(-577.046 -830.065)" fill="#ffa412"/>
        <rect id="Rectangle_53" data-name="Rectangle 53" width="1.266" height="10.391" transform="translate(184.319 128.265)" fill="#ffa412"/>
        <rect id="Rectangle_54" data-name="Rectangle 54" width="1.266" height="10.391" transform="translate(180.035 128.265)" fill="#ffa412"/>
        <rect id="Rectangle_55" data-name="Rectangle 55" width="1.266" height="10.391" transform="translate(174.9 128.265)" fill="#ffa412"/>
        <rect id="Rectangle_56" data-name="Rectangle 56" width="1.266" height="10.391" transform="translate(167.026 128.265)" fill="#ffa412"/>
        <rect id="Rectangle_57" data-name="Rectangle 57" width="1.266" height="10.391" transform="translate(158.703 128.265)" fill="#ffa412"/>
        <rect id="Rectangle_58" data-name="Rectangle 58" width="1.266" height="10.391" transform="translate(145.941 128.265)" fill="#ffa412"/>
        <rect id="Rectangle_59" data-name="Rectangle 59" width="1.266" height="10.391" transform="translate(133.994 128.265)" fill="#ffa412"/>
        <rect id="Rectangle_60" data-name="Rectangle 60" width="1.266" height="10.391" transform="translate(129.758 128.265)" fill="#ffa412"/>
        <rect id="Rectangle_61" data-name="Rectangle 61" width="1.266" height="10.391" transform="translate(188.395 128.265)" fill="#ffa412"/>
        <rect id="Rectangle_62" data-name="Rectangle 62" width="1.266" height="10.391" transform="translate(191.087 128.265)" fill="#ffa412"/>
        <rect id="Rectangle_63" data-name="Rectangle 63" width="1.266" height="10.391" transform="translate(193.687 128.265)" fill="#ffa412"/>
        <path id="Path_62" data-name="Path 62" d="M983.116,958.366v10.323a3.425,3.425,0,0,1-.476.036h-.79V958.33h.79A3.416,3.416,0,0,1,983.116,958.366Z" transform="translate(-786.207 -830.066)" fill="#ffa412"/>
        <path id="Path_63" data-name="Path 63" d="M988.036,959.607V968a2.671,2.671,0,0,1-1.266.848V958.76A2.671,2.671,0,0,1,988.036,959.607Z" transform="translate(-789.368 -830.342)" fill="#ffa412"/>
        <path id="Path_64" data-name="Path 64" d="M759.012,931.606v5.868a2.016,2.016,0,0,1-.461,1.266,2.664,2.664,0,0,1-1.266.844,2.757,2.757,0,0,1-.493.118l-.154.021H644.987a2.544,2.544,0,0,1-2.689-2.145v-6.086a.877.877,0,0,1,0-.1,2.437,2.437,0,0,1,2.017-1.981h.082a3.132,3.132,0,0,1,.583-.054H756.791a3.107,3.107,0,0,1,.493.114,2.7,2.7,0,0,1,1.266.847,2.007,2.007,0,0,1,.461,1.284Z" transform="translate(-568.067 -811.454)" fill="#ffb93e"/>
        <path id="Path_65" data-name="Path 65" d="M704.376,939.711H644.737a2.353,2.353,0,0,1-2.4-2.145v-6.1a.847.847,0,0,1,0-.1,2.324,2.324,0,0,1,1.863-2l.1-.018a2.385,2.385,0,0,1,.426-.036h52.312l.022.072a18.235,18.235,0,0,0,7.28,10.305Z" transform="translate(-561.575 -811.429)" fill="#ffa412"/>
        <rect id="Rectangle_64" data-name="Rectangle 64" width="1.266" height="10.391" transform="translate(176.134 117.892)" fill="#ffa412"/>
        <rect id="Rectangle_65" data-name="Rectangle 65" width="1.266" height="10.391" transform="translate(171.85 117.892)" fill="#ffa412"/>
        <rect id="Rectangle_66" data-name="Rectangle 66" width="1.266" height="10.391" transform="translate(166.716 117.892)" fill="#ffa412"/>
        <rect id="Rectangle_67" data-name="Rectangle 67" width="1.266" height="10.391" transform="translate(158.842 117.892)" fill="#ffa412"/>
        <rect id="Rectangle_68" data-name="Rectangle 68" width="1.266" height="10.391" transform="translate(150.518 117.892)" fill="#ffa412"/>
        <rect id="Rectangle_69" data-name="Rectangle 69" width="1.266" height="10.391" transform="translate(137.756 117.892)" fill="#ffa412"/>
        <rect id="Rectangle_70" data-name="Rectangle 70" width="1.266" height="10.391" transform="translate(132.045 117.892)" fill="#ffa412"/>
        <rect id="Rectangle_71" data-name="Rectangle 71" width="1.266" height="10.391" transform="translate(122.223 117.892)" fill="#ffa412"/>
        <rect id="Rectangle_72" data-name="Rectangle 72" width="1.266" height="10.391" transform="translate(180.21 117.892)" fill="#ffa412"/>
        <rect id="Rectangle_73" data-name="Rectangle 73" width="1.266" height="10.391" transform="translate(182.903 117.892)" fill="#ffa412"/>
        <rect id="Rectangle_74" data-name="Rectangle 74" width="1.266" height="10.391" transform="translate(185.502 117.892)" fill="#ffa412"/>
        <path id="Path_66" data-name="Path 66" d="M960.251,929.356v10.319a3.432,3.432,0,0,1-.472.036H959V929.32h.79A2.926,2.926,0,0,1,960.251,929.356Z" transform="translate(-771.527 -811.429)" fill="#ffa412"/>
        <path id="Path_67" data-name="Path 67" d="M965.146,930.587v8.4a2.688,2.688,0,0,1-1.266.844V929.74A2.7,2.7,0,0,1,965.146,930.587Z" transform="translate(-774.663 -811.698)" fill="#ffa412"/>
        <path id="Path_68" data-name="Path 68" d="M758.367,902.723v5.868a1.988,1.988,0,0,1-.461,1.262,2.686,2.686,0,0,1-1.262.847,3.442,3.442,0,0,1-.386.1h-.107a2.934,2.934,0,0,1-.476.036H644.36a2.817,2.817,0,0,1-.357,0l-.132-.018a2.454,2.454,0,0,1-2.21-2.11v-6.1a2.545,2.545,0,0,1,2.693-2.145h111.8a2.834,2.834,0,0,1,.493.118l.068.022.072.025.132.057.147.068.129.068.136.086.107.071h0l.068.05a2.325,2.325,0,0,1,.2.168l.054.054.05.054.1.114a2,2,0,0,1,.465,1.309Z" transform="translate(-567.659 -792.888)" fill="#ffb93e"/>
        <path id="Path_69" data-name="Path 69" d="M703.718,910.85H643.94a1.135,1.135,0,0,1-.154,0,2.331,2.331,0,0,1-2.106-2.145v-6.1a2.353,2.353,0,0,1,2.4-2.145H696.4c.021.086.047.172.072.258a18.193,18.193,0,0,0,7.151,10.062Z" transform="translate(-561.131 -792.887)" fill="#ffa412"/>
        <rect id="Rectangle_75" data-name="Rectangle 75" width="1.266" height="10.391" transform="translate(175.898 107.572)" fill="#ffa412"/>
        <rect id="Rectangle_76" data-name="Rectangle 76" width="1.266" height="10.391" transform="translate(171.618 107.572)" fill="#ffa412"/>
        <rect id="Rectangle_77" data-name="Rectangle 77" width="1.266" height="10.391" transform="translate(166.479 107.572)" fill="#ffa412"/>
        <rect id="Rectangle_78" data-name="Rectangle 78" width="1.266" height="10.391" transform="translate(158.609 107.572)" fill="#ffa412"/>
        <rect id="Rectangle_79" data-name="Rectangle 79" width="1.266" height="10.391" transform="translate(150.285 107.572)" fill="#ffa412"/>
        <rect id="Rectangle_80" data-name="Rectangle 80" width="1.266" height="10.391" transform="translate(137.523 107.572)" fill="#ffa412"/>
        <rect id="Rectangle_81" data-name="Rectangle 81" width="1.266" height="10.391" transform="translate(131.828 107.572)" fill="#ffa412"/>
        <rect id="Rectangle_82" data-name="Rectangle 82" width="1.266" height="10.391" transform="translate(122.009 107.572)" fill="#ffa412"/>
        <rect id="Rectangle_83" data-name="Rectangle 83" width="1.266" height="10.391" transform="translate(179.974 107.572)" fill="#ffa412"/>
        <rect id="Rectangle_84" data-name="Rectangle 84" width="1.266" height="10.391" transform="translate(182.67 107.572)" fill="#ffa412"/>
        <rect id="Rectangle_85" data-name="Rectangle 85" width="1.266" height="10.391" transform="translate(185.27 107.572)" fill="#ffa412"/>
        <path id="Path_70" data-name="Path 70" d="M959.576,900.5v10.319a2.946,2.946,0,0,1-.476.036h-.79V900.46h.79A3.425,3.425,0,0,1,959.576,900.5Z" transform="translate(-771.084 -792.888)" fill="#ffa412"/>
        <path id="Path_71" data-name="Path 71" d="M964.492,901.734v8.4a2.685,2.685,0,0,1-1.262.847V900.89A2.679,2.679,0,0,1,964.492,901.734Z" transform="translate(-774.245 -793.164)" fill="#ffa412"/>
        <path id="Path_72" data-name="Path 72" d="M774.5,874.373v5.868a2.006,2.006,0,0,1-.461,1.262,2.671,2.671,0,0,1-1.266.847,2.8,2.8,0,0,1-.49.118,3.512,3.512,0,0,1-.476.036H660.489a3.064,3.064,0,0,1-1.241-.257,2.306,2.306,0,0,1-1.43-1.788.948.948,0,0,1,0-.1v-6.1a2.544,2.544,0,0,1,2.689-2.146h111.3a3.005,3.005,0,0,1,.476.039,2.8,2.8,0,0,1,.49.114,2.671,2.671,0,0,1,1.266.847A2,2,0,0,1,774.5,874.373Z" transform="translate(-578.038 -766.116)" fill="#ffb93e"/>
        <path id="Path_73" data-name="Path 73" d="M719.819,882.5H660.18a2.5,2.5,0,0,1-1.108-.258,2.27,2.27,0,0,1-1.284-1.788.979.979,0,0,1,0-.1v-6.1a2.353,2.353,0,0,1,2.4-2.145H712.5a18.235,18.235,0,0,0,6.958,10.137Z" transform="translate(-572.02 -766.115)" fill="#ffa412"/>
        <rect id="Rectangle_86" data-name="Rectangle 86" width="1.266" height="10.391" transform="translate(181.651 105.998)" fill="#ffa412"/>
        <rect id="Rectangle_87" data-name="Rectangle 87" width="1.266" height="10.391" transform="translate(177.368 105.998)" fill="#ffa412"/>
        <rect id="Rectangle_88" data-name="Rectangle 88" width="1.266" height="10.391" transform="translate(172.233 105.998)" fill="#ffa412"/>
        <rect id="Rectangle_89" data-name="Rectangle 89" width="1.266" height="10.391" transform="translate(164.359 105.998)" fill="#ffa412"/>
        <rect id="Rectangle_90" data-name="Rectangle 90" width="1.266" height="10.391" transform="translate(156.035 105.998)" fill="#ffa412"/>
        <rect id="Rectangle_91" data-name="Rectangle 91" width="1.266" height="10.391" transform="translate(143.277 105.998)" fill="#ffa412"/>
        <rect id="Rectangle_92" data-name="Rectangle 92" width="1.266" height="10.391" transform="translate(131.327 105.998)" fill="#ffa412"/>
        <rect id="Rectangle_93" data-name="Rectangle 93" width="1.266" height="10.391" transform="translate(127.302 105.998)" fill="#ffa412"/>
        <rect id="Rectangle_94" data-name="Rectangle 94" width="1.266" height="10.391" transform="translate(185.727 105.998)" fill="#ffa412"/>
        <rect id="Rectangle_95" data-name="Rectangle 95" width="1.266" height="10.391" transform="translate(188.42 105.998)" fill="#ffa412"/>
        <rect id="Rectangle_96" data-name="Rectangle 96" width="1.266" height="10.391" transform="translate(191.023 105.998)" fill="#ffa412"/>
        <path id="Path_74" data-name="Path 74" d="M975.666,872.149v10.32a3.513,3.513,0,0,1-.476.036h-.79V872.11h.79A3.005,3.005,0,0,1,975.666,872.149Z" transform="translate(-781.421 -766.116)" fill="#ffa412"/>
        <path id="Path_75" data-name="Path 75" d="M980.576,873.387v8.392a2.67,2.67,0,0,1-1.266.848V872.54A2.671,2.671,0,0,1,980.576,873.387Z" transform="translate(-784.575 -766.382)" fill="#ffa412"/>
        <path id="Path_76" data-name="Path 76" d="M799.91,845.313v5.868a1.988,1.988,0,0,1-.461,1.262,2.7,2.7,0,0,1-1.266.848,3.157,3.157,0,0,1-.49.114,3.017,3.017,0,0,1-.476.036H685.9a2.544,2.544,0,0,1-2.689-2.145v-6.1a2.469,2.469,0,0,1,2.371-2.128,2.332,2.332,0,0,1,.318-.018H797.217a3.512,3.512,0,0,1,.476.036,2.8,2.8,0,0,1,.49.118,2.689,2.689,0,0,1,1.266.844A2,2,0,0,1,799.91,845.313Z" transform="translate(-594.352 -746.383)" fill="#ffb93e"/>
        <path id="Path_77" data-name="Path 77" d="M745.248,853.441H685.609a2.353,2.353,0,0,1-2.4-2.145v-6.1a2.328,2.328,0,0,1,2.117-2.128,1.837,1.837,0,0,1,.282-.018h52.316v.018A18.208,18.208,0,0,0,745.248,853.441Z" transform="translate(-594.352 -746.384)" fill="#ffa412"/>
        <rect id="Rectangle_97" data-name="Rectangle 97" width="1.266" height="10.391" transform="translate(190.748 96.666)" fill="#ffa412"/>
        <rect id="Rectangle_98" data-name="Rectangle 98" width="1.266" height="10.391" transform="translate(186.464 96.666)" fill="#ffa412"/>
        <rect id="Rectangle_99" data-name="Rectangle 99" width="1.266" height="10.391" transform="translate(181.33 96.666)" fill="#ffa412"/>
        <rect id="Rectangle_100" data-name="Rectangle 100" width="1.266" height="10.391" transform="translate(173.459 96.666)" fill="#ffa412"/>
        <rect id="Rectangle_101" data-name="Rectangle 101" width="1.266" height="10.391" transform="translate(165.135 96.666)" fill="#ffa412"/>
        <rect id="Rectangle_102" data-name="Rectangle 102" width="1.266" height="10.391" transform="translate(152.373 96.666)" fill="#ffa412"/>
        <rect id="Rectangle_103" data-name="Rectangle 103" width="1.266" height="10.391" transform="translate(140.423 96.666)" fill="#ffa412"/>
        <rect id="Rectangle_104" data-name="Rectangle 104" width="1.266" height="10.391" transform="translate(129.753 96.666)" fill="#ffa412"/>
        <rect id="Rectangle_105" data-name="Rectangle 105" width="1.266" height="10.391" transform="translate(194.824 96.666)" fill="#ffa412"/>
        <rect id="Rectangle_106" data-name="Rectangle 106" width="1.266" height="10.391" transform="translate(197.517 96.666)" fill="#ffa412"/>
        <rect id="Rectangle_107" data-name="Rectangle 107" width="1.266" height="10.391" transform="translate(200.12 96.666)" fill="#ffa412"/>
        <path id="Path_78" data-name="Path 78" d="M1001.106,843.086V853.4a3.018,3.018,0,0,1-.476.036h-.79V843.05h.79A3.5,3.5,0,0,1,1001.106,843.086Z" transform="translate(-797.764 -746.383)" fill="#ffa412"/>
        <path id="Path_79" data-name="Path 79" d="M1006.022,844.324v8.4a2.7,2.7,0,0,1-1.262.847V843.48A2.7,2.7,0,0,1,1006.022,844.324Z" transform="translate(-800.925 -746.651)" fill="#ffa412"/>
        <path id="Path_80" data-name="Path 80" d="M759.04,816.293v5.868a2.006,2.006,0,0,1-.461,1.262,2.7,2.7,0,0,1-1.266.847,2.746,2.746,0,0,1-.494.114l-.154.021H645.029a2.547,2.547,0,0,1-2.689-2.145v-6.086a2.541,2.541,0,0,1,2.689-2.145H756.49a2.5,2.5,0,0,1,.329.032,2.764,2.764,0,0,1,.494.118,2.266,2.266,0,0,1,.236.086l.136.064h.018l.132.071h.025l.118.075a2.152,2.152,0,0,1,.268.2l.079.064h0l.047.043h0l.079.082.107.125A2.006,2.006,0,0,1,759.04,816.293Z" transform="translate(-568.096 -726.678)" fill="#ffb93e"/>
        <path id="Path_81" data-name="Path 81" d="M704.378,824.423H644.739a2.353,2.353,0,0,1-2.4-2.145v-6.1a2.353,2.353,0,0,1,2.4-2.145h52.312c.021.079.043.161.071.24a18.161,18.161,0,0,0,7.23,10.137Z" transform="translate(-561.577 -726.678)" fill="#ffa412"/>
        <rect id="Rectangle_108" data-name="Rectangle 108" width="1.266" height="10.391" transform="translate(176.134 87.351)" fill="#ffa412"/>
        <rect id="Rectangle_109" data-name="Rectangle 109" width="1.266" height="10.391" transform="translate(171.85 87.351)" fill="#ffa412"/>
        <rect id="Rectangle_110" data-name="Rectangle 110" width="1.266" height="10.391" transform="translate(166.716 87.351)" fill="#ffa412"/>
        <rect id="Rectangle_111" data-name="Rectangle 111" width="1.266" height="10.391" transform="translate(158.842 87.351)" fill="#ffa412"/>
        <rect id="Rectangle_112" data-name="Rectangle 112" width="1.266" height="10.391" transform="translate(150.518 87.351)" fill="#ffa412"/>
        <rect id="Rectangle_113" data-name="Rectangle 113" width="1.266" height="10.391" transform="translate(137.756 87.351)" fill="#ffa412"/>
        <rect id="Rectangle_114" data-name="Rectangle 114" width="1.266" height="10.391" transform="translate(132.045 87.351)" fill="#ffa412"/>
        <rect id="Rectangle_115" data-name="Rectangle 115" width="1.266" height="10.391" transform="translate(122.223 87.351)" fill="#ffa412"/>
        <rect id="Rectangle_116" data-name="Rectangle 116" width="1.266" height="10.391" transform="translate(180.21 87.351)" fill="#ffa412"/>
        <rect id="Rectangle_117" data-name="Rectangle 117" width="1.266" height="10.391" transform="translate(182.903 87.351)" fill="#ffa412"/>
        <rect id="Rectangle_118" data-name="Rectangle 118" width="1.266" height="10.391" transform="translate(185.502 87.351)" fill="#ffa412"/>
        <path id="Path_82" data-name="Path 82" d="M960.251,814.046v10.323a2.92,2.92,0,0,1-.472.039H959V814h.79a3.388,3.388,0,0,1,.461.046Z" transform="translate(-771.527 -726.66)" fill="#ffa412"/>
        <path id="Path_83" data-name="Path 83" d="M965.146,815.307V823.7a2.7,2.7,0,0,1-1.266.847V814.46A2.672,2.672,0,0,1,965.146,815.307Z" transform="translate(-774.663 -726.947)" fill="#ffa412"/>
        <path id="Path_84" data-name="Path 84" d="M781.936,787.914v5.868a2.006,2.006,0,0,1-.461,1.262,2.7,2.7,0,0,1-1.266.848,3.109,3.109,0,0,1-.493.114,2.94,2.94,0,0,1-.476.036H667.925a3.083,3.083,0,0,1-1.205-.24,2.313,2.313,0,0,1-1.48-1.813.875.875,0,0,0,0-.093v-6.111a2.472,2.472,0,0,1,2.374-2.128,2.3,2.3,0,0,1,.318-.018H779.24a2.94,2.94,0,0,1,.476.036,2.763,2.763,0,0,1,.493.118,2.689,2.689,0,0,1,1.266.844,2.016,2.016,0,0,1,.461,1.277Z" transform="translate(-582.807 -707.403)" fill="#ffb93e"/>
        <path id="Path_85" data-name="Path 85" d="M727.271,796.031H667.636a2.506,2.506,0,0,1-1.073-.239,2.278,2.278,0,0,1-1.323-1.813.875.875,0,0,0,0-.093v-6.1a2.335,2.335,0,0,1,2.117-2.128,1.885,1.885,0,0,1,.286-.018h52.312a.025.025,0,0,1,0,.018,18.236,18.236,0,0,0,6.976,10.123C727.042,795.873,727.157,795.952,727.271,796.031Z" transform="translate(-577.059 -707.402)" fill="#ffa412"/>
        <rect id="Rectangle_119" data-name="Rectangle 119" width="1.266" height="10.391" transform="translate(184.319 78.237)" fill="#ffa412"/>
        <rect id="Rectangle_120" data-name="Rectangle 120" width="1.266" height="10.391" transform="translate(180.035 78.237)" fill="#ffa412"/>
        <rect id="Rectangle_121" data-name="Rectangle 121" width="1.266" height="10.391" transform="translate(174.9 78.237)" fill="#ffa412"/>
        <rect id="Rectangle_122" data-name="Rectangle 122" width="1.266" height="10.391" transform="translate(167.026 78.237)" fill="#ffa412"/>
        <rect id="Rectangle_123" data-name="Rectangle 123" width="1.266" height="10.391" transform="translate(158.703 78.237)" fill="#ffa412"/>
        <rect id="Rectangle_124" data-name="Rectangle 124" width="1.266" height="10.391" transform="translate(145.941 78.237)" fill="#ffa412"/>
        <rect id="Rectangle_125" data-name="Rectangle 125" width="1.266" height="10.391" transform="translate(133.994 78.237)" fill="#ffa412"/>
        <rect id="Rectangle_126" data-name="Rectangle 126" width="1.266" height="10.391" transform="translate(129.758 78.237)" fill="#ffa412"/>
        <rect id="Rectangle_127" data-name="Rectangle 127" width="1.266" height="10.391" transform="translate(188.395 78.237)" fill="#ffa412"/>
        <rect id="Rectangle_128" data-name="Rectangle 128" width="1.266" height="10.391" transform="translate(191.087 78.237)" fill="#ffa412"/>
        <rect id="Rectangle_129" data-name="Rectangle 129" width="1.266" height="10.391" transform="translate(193.687 78.237)" fill="#ffa412"/>
        <path id="Path_86" data-name="Path 86" d="M983.116,785.676V796a2.948,2.948,0,0,1-.476.036h-.79V785.64h.79A2.941,2.941,0,0,1,983.116,785.676Z" transform="translate(-786.207 -707.402)" fill="#ffa412"/>
        <path id="Path_87" data-name="Path 87" d="M988.036,786.914v8.4a2.7,2.7,0,0,1-1.266.847V786.07a2.662,2.662,0,0,1,1.266.844Z" transform="translate(-789.368 -707.671)" fill="#ffa412"/>
        <path id="Path_88" data-name="Path 88" d="M791.67,758.933V764.8a2.006,2.006,0,0,1-.461,1.262,2.672,2.672,0,0,1-1.266.847,2.8,2.8,0,0,1-.49.114l-.157.022H677.659a2.547,2.547,0,0,1-2.689-2.146v-6.086a2.541,2.541,0,0,1,2.689-2.145H788.977a3.494,3.494,0,0,1,.476.036,2.8,2.8,0,0,1,.49.118,2.669,2.669,0,0,1,1.266.847A2.006,2.006,0,0,1,791.67,758.933Z" transform="translate(-589.058 -687.731)" fill="#ffb93e"/>
        <path id="Path_89" data-name="Path 89" d="M737.008,767.045H677.369a2.353,2.353,0,0,1-2.4-2.145v-6.086a2.353,2.353,0,0,1,2.4-2.145h52.32a18.237,18.237,0,0,0,7.3,10.37Z" transform="translate(-589.058 -687.73)" fill="#ffa412"/>
        <rect id="Rectangle_130" data-name="Rectangle 130" width="1.266" height="10.391" transform="translate(187.801 68.922)" fill="#ffa412"/>
        <rect id="Rectangle_131" data-name="Rectangle 131" width="1.266" height="10.391" transform="translate(183.518 68.922)" fill="#ffa412"/>
        <rect id="Rectangle_132" data-name="Rectangle 132" width="1.266" height="10.391" transform="translate(178.383 68.922)" fill="#ffa412"/>
        <rect id="Rectangle_133" data-name="Rectangle 133" width="1.266" height="10.391" transform="translate(170.513 68.922)" fill="#ffa412"/>
        <rect id="Rectangle_134" data-name="Rectangle 134" width="1.266" height="10.391" transform="translate(162.188 68.922)" fill="#ffa412"/>
        <rect id="Rectangle_135" data-name="Rectangle 135" width="1.266" height="10.391" transform="translate(149.427 68.922)" fill="#ffa412"/>
        <rect id="Rectangle_136" data-name="Rectangle 136" width="1.266" height="10.391" transform="translate(137.477 68.922)" fill="#ffa412"/>
        <rect id="Rectangle_137" data-name="Rectangle 137" width="1.266" height="10.391" transform="translate(132.964 68.922)" fill="#ffa412"/>
        <rect id="Rectangle_138" data-name="Rectangle 138" width="1.266" height="10.391" transform="translate(191.878 68.922)" fill="#ffa412"/>
        <rect id="Rectangle_139" data-name="Rectangle 139" width="1.266" height="10.391" transform="translate(194.57 68.922)" fill="#ffa412"/>
        <rect id="Rectangle_140" data-name="Rectangle 140" width="1.266" height="10.391" transform="translate(197.173 68.922)" fill="#ffa412"/>
        <path id="Path_90" data-name="Path 90" d="M992.866,756.656v10.319a3,3,0,0,1-.476.039h-.79V756.62h.79A3.514,3.514,0,0,1,992.866,756.656Z" transform="translate(-792.471 -687.698)" fill="#ffa412"/>
        <path id="Path_91" data-name="Path 91" d="M997.776,757.9v8.392a2.7,2.7,0,0,1-1.266.848V757.05A2.67,2.67,0,0,1,997.776,757.9Z" transform="translate(-795.625 -687.967)" fill="#ffa412"/>
        <circle id="Ellipse_2" data-name="Ellipse 2" cx="52.906" cy="52.906" r="52.906" transform="translate(4.616 116.69) rotate(-45)" fill="#e2810e"/>
        <circle id="Ellipse_3" data-name="Ellipse 3" cx="52.906" cy="52.906" r="52.906" transform="translate(0 116.69) rotate(-45)" fill="#ffb93e"/>
        <path id="Path_92" data-name="Path 92" d="M557.4,889.345a48.2,48.2,0,1,1,34.083-14.117A48.2,48.2,0,0,1,557.4,889.345Zm0-93.519A45.329,45.329,0,1,0,602.73,841.15,45.33,45.33,0,0,0,557.4,795.826Z" transform="translate(-473.898 -723.818)" fill="#ffa412"/>
        <path id="Path_93" data-name="Path 93" d="M612.672,877.787a8.054,8.054,0,0,0-.115-2.8,5.821,5.821,0,0,0-1.184-2.324,11.083,11.083,0,0,0-2.367-2.088,28.952,28.952,0,0,0-3.669-2.034,76.246,76.246,0,0,1-6.772-3.722,24.085,24.085,0,0,1-5.045-4.144,14.135,14.135,0,0,1-2.989-5.006,15.927,15.927,0,0,1,1.287-12.047,13.41,13.41,0,0,1,3.733-4.148,16.73,16.73,0,0,1,5.364-2.549,22.451,22.451,0,0,1,6.679-.769l.94-7.945,6.4.758-.958,8.056a20.025,20.025,0,0,1,6.007,2.553,15.118,15.118,0,0,1,6.733,9.654,20.056,20.056,0,0,1,.265,6.826l-11.549-1.37q.533-4.455-1.187-6.9a6.826,6.826,0,0,0-5.035-2.839,8.624,8.624,0,0,0-3.157.136,5.811,5.811,0,0,0-2.3,1.119,5.405,5.405,0,0,0-1.484,1.913,8,8,0,0,0-.715,2.5,7.4,7.4,0,0,0,.1,2.535,5.457,5.457,0,0,0,1.137,2.224,10.938,10.938,0,0,0,2.385,2.088,37.487,37.487,0,0,0,3.812,2.206q3.708,1.9,6.7,3.8a24.2,24.2,0,0,1,5.038,4.155,13.638,13.638,0,0,1,3.508,11.442A14.528,14.528,0,0,1,622.4,884.8a13.2,13.2,0,0,1-3.758,4.123,16.172,16.172,0,0,1-5.364,2.449,24.082,24.082,0,0,1-6.712.715l-.89,7.384-6.358-.751.872-7.352a27.128,27.128,0,0,1-6.243-2.21,17.165,17.165,0,0,1-5.113-3.862,15.27,15.27,0,0,1-3.218-5.746,18.386,18.386,0,0,1-.533-7.82l11.549,1.373a11.5,11.5,0,0,0,.218,4.484,7.441,7.441,0,0,0,1.645,3.057,7.153,7.153,0,0,0,2.639,1.82,12.387,12.387,0,0,0,3.168.808,10.327,10.327,0,0,0,3.354-.089,6.936,6.936,0,0,0,2.539-1.073,5.485,5.485,0,0,0,1.677-1.856A6.732,6.732,0,0,0,612.672,877.787Z" transform="translate(-521.468 -746.472)" fill="#ffa412"/>
      </g>
      <g id="man" transform="translate(4141.211 1978)">
        <path id="Path_94" data-name="Path 94" d="M299,164.67l17.9,33.922,9.172-3.331-2.977,9.05,17.925,54S350.912,189.7,299,164.67Z" transform="translate(-177.387 -106.514)" fill="#233862"/>
        <path id="Path_95" data-name="Path 95" d="M330.99,238.41s19.772,72.888,21.675,142.44c0,0-16.4,5.694-42.159,1.192C284.613,377.491,330.99,238.41,330.99,238.41Z" transform="translate(-179.55 -156.437)" fill="#233862"/>
        <path id="Path_96" data-name="Path 96" d="M573.946,467.276c-5.288-.1-12.776.553-15.245-2.144a7.47,7.47,0,0,0-6.1-2.615l.667-3.5.814-4.177s.3-.382,1.391-.366a20.815,20.815,0,0,0,5.694-.492c4.474-1.594,22.245,9.054,21.647,12.011C582.564,467.1,576.207,467.317,573.946,467.276Z" transform="translate(-327.838 -289.027)" fill="#e2915a"/>
        <path id="Path_97" data-name="Path 97" d="M348.934,234.9s30.03,62.032,39.328,68.69,42.423,21.057,42.423,21.057a8.43,8.43,0,0,1,.065,5.084c-.838,3.144-2.489,4.035-2.489,4.035s-46.32-4.137-57.094-10.84S336.65,289.5,336.65,289.5Z" transform="translate(-199.723 -152.138)" fill="#233862"/>
        <path id="Path_98" data-name="Path 98" d="M104.747,1037.39H86.965c-2.237-1.22-4.23-4-4.881-8.135-.87-5.727-7.285-8.847-8.676-13.532s5.755-11.279,5.755-11.279l1.188-1.534,1.241-1.59,11.8,2.778s.293,2.81.472,6.39c.126,2.583.2,5.564.049,8.184-.346,6.244,1.749,12.971,7.3,14.187C105.309,1033.753,105.126,1036.19,104.747,1037.39Z" transform="translate(-43.446 -640.154)" fill="#233862"/>
        <path id="Path_99" data-name="Path 99" d="M343.116,1059.68H302.442c-1.952-2.388-1.22-11.189-.936-14.065.061-.577.1-.915.1-.915s13.882-11.1,15.79-2.6c.057.268.126.529.2.785,2.4,7.952,13.178,11.568,19.4,12.572C341.066,1056.117,342.566,1058.22,343.116,1059.68Z" transform="translate(-178.652 -662.445)" fill="#233862"/>
        <path id="Path_100" data-name="Path 100" d="M299.384,526.844s-2.107,26.3-4.6,57.908c-3.368,42.944-7.415,95.69-7.818,105.683-.691,17.348-3.47,45.1-3.47,45.1s-6.589,6.593-19.776,3.815c0,0-11.755-39.621-15.11-81.543-.053-.683-.106-1.379-.155-2.07-3.124-42.675-7.98-132.54-7.98-132.54Z" transform="translate(-142.669 -356.505)" fill="#f99746"/>
        <path id="Path_101" data-name="Path 101" d="M299.4,526.844s-2.107,26.3-4.6,57.908l-46.161,73.059c-.053-.683-.106-1.379-.155-2.07-3.124-42.675-7.98-132.54-7.98-132.54Z" transform="translate(-142.687 -342.174)" fill="#ed7d2b"/>
        <path id="Path_102" data-name="Path 102" d="M199.194,514.787S161.2,610.029,136.218,654.77s-32.787,57.249-32.787,57.249S89.113,706.308,87.82,702.4c0,0,9.55-86.408,26.279-107.469,9.453-11.905,20.569-47.621,21.081-60.112s3.38-37.213,3.38-37.213Z" transform="translate(-52.102 -341.323)" fill="#f99746"/>
        <path id="Path_103" data-name="Path 103" d="M279.266,140.742c-14.846,4.686-40.536-7.96-40.536-7.96s13.687-10.27,12.971-31.632l11.478,9.249,7.793,6.284a93.785,93.785,0,0,1-.883,10.2q-.232,1.773-.553,3.827a2.754,2.754,0,0,0,1.245,2.77A35.123,35.123,0,0,1,279.266,140.742Z" transform="translate(-141.631 -59.995)" fill="#ffb27d"/>
        <path id="Path_104" data-name="Path 104" d="M280.24,316.365a2.4,2.4,0,0,1-1.562.594c-5.572-.077-21.83,3.018-35.586,1.627-11.6-1.115-21.862-4.547-32.885-9.489-1.464-.655-4.832-2.44-4.759-4.092.053-1.79.228-4.389.451-7.659.781-11.389,2.139-30.949.813-53.527-.236-4.2-.362-8.371-.378-12.479-.114-30.595,5.955-57.509,18.149-66.62,0,0,8.5,4.771,14.382,6.65,5.764,1.842,8.737,1.472,11.726-.508,0,0,5.82,2.892,8.31,5.6,5.747,6.264,10.258,14.594,13.231,26.564,2.53,10.168,4.881,25.035,5.719,44.066C278.222,255.72,280.61,316.064,280.24,316.365Z" transform="translate(-121.886 -108.398)" fill="#fff"/>
        <path id="Path_105" data-name="Path 105" d="M194.005,215.258,210.348,164.7s39.234,14.8,41.048,70.2c.716,12.609,3.742,64.362-1.733,107.237,0,0-30.571,11.909-68.044-11.592Z" transform="translate(-107.75 -109.452)" fill="#2b478b"/>
        <path id="Path_106" data-name="Path 106" d="M289.814,129.839a93.772,93.772,0,0,1-.883,10.2c-8.639-1.481-18.442-15.456-18.442-15.456a27.592,27.592,0,0,1,11.527-1.033Z" transform="translate(-160.473 -73.151)" fill="#ed975d"/>
        <path id="Path_107" data-name="Path 107" d="M287.169,73.834S260.43,78.276,257.92,61.579s-7.655-27.365,9.314-30.912,21.248,2.343,23.44,7.7S294.059,72.248,287.169,73.834Z" transform="translate(-151.393 -17.54)" fill="#ffb27d"/>
        <path id="Path_108" data-name="Path 108" d="M29,596.975l54.6,7.781a13.089,13.089,0,0,0,14.761-11.079l3.372-23.66a13.089,13.089,0,0,0-11.076-14.761l-54.6-7.781A13.085,13.085,0,0,0,21.3,558.554l-3.372,23.66A13.085,13.085,0,0,0,29,596.975Z" transform="translate(-10.56 -351.322)" fill="#233862"/>
        <path id="Path_109" data-name="Path 109" d="M83.979,558.621,80.57,582.554a13.174,13.174,0,0,1-11.983,11.214h0a12.849,12.849,0,0,1-2.847-.089l-54.5-7.769A13.134,13.134,0,0,1,.133,571.1l3.408-23.937a13.142,13.142,0,0,1,14.818-11.12l18.767,2.676.724-5.117a4.324,4.324,0,0,1,4.881-3.661l2.058.289L56.2,531.854l2.847.407a4.328,4.328,0,0,1,3.661,4.881l-.728,5.1,10.872,1.546c.431.061.846.146,1.261.244h0a13.163,13.163,0,0,1,9.046,7.9h0a12.992,12.992,0,0,1,.818,6.683ZM39.807,539.1,59.33,541.88l.724-5.1a1.627,1.627,0,0,0-1.371-1.826l-4.881-.7-8.981-1.285-2.44-.342a1.618,1.618,0,0,0-1.847,1.379Z" transform="translate(-0.005 -340.553)" fill="#2b478b"/>
        <path id="Path_110" data-name="Path 110" d="M123.243,490.71s-2.847,3.819-2.981,5.345c-.773,10.343,3.954,11.775-8.281,17.522,0,0-5.227,1.993-5.312-2.062s3.624-4.124,2.945-9.8c-.785-6.549-.7-6.61,3.6-10.03l2.847-4.7Z" transform="translate(-63.283 -310.841)" fill="#ffb27d"/>
        <path id="Path_111" data-name="Path 111" d="M120.247,302.425a41.9,41.9,0,0,0,9.607.533s13.687-42.277,15.456-46.136,40.629-49.573,40.629-49.573L170.178,164.67s-9.253,5.422-19.035,22.293c-12.08,20.845-25.364,54.418-27.727,59.876-7.057,16.314-9.506,52.876-9.506,52.876A17.644,17.644,0,0,0,120.247,302.425Z" transform="translate(-67.58 -107.81)" fill="#2b478b"/>
        <path id="Path_112" data-name="Path 112" d="M252.357,42.4s2.746-.456,2.3-4.238-.435-8.721,2.64-7.8,3.225,3.38,4.474,1.944,1.3-7.492,10.441-7.923,12.861,2.762,17.112.891S293.8,16.97,293.8,16.97A7.4,7.4,0,0,1,290.761,20s7.094-9.7-1.119-16.359S273.056,1.347,268.3,1.632c-10.47.635-17.238,1.265-20.658,8.135S245.637,35.773,252.357,42.4Z" transform="translate(-145.854 0.033)" fill="#2b478b"/>
        <path id="Path_113" data-name="Path 113" d="M135.962,507.34s2.762,2.876,2.933,4.067c.561,3.844,1.842,5.507,1.22,5.926-1.334.866-3.107-1.981-3.949-4.531A11.85,11.85,0,0,1,135.962,507.34Z" transform="translate(-80.525 -322.944)" fill="#ffb27d"/>
        <path id="Path_114" data-name="Path 114" d="M252.25,164.67l17.876,33.922,9.172-3.331-2.977,9.05,17.925,54S304.158,189.7,252.25,164.67Z" transform="translate(-149.652 -106.514)" fill="#233862"/>
      </g>
      <path id="Path_115" data-name="Path 115" d="M326.323,114.587s-1.041,2.754-3.661,2.847-4.612-2.44-4.612-2.44S323.724,113.651,326.323,114.587Z" transform="translate(3951.058 1910.231)" fill="#fff"/>
    </g>
  </g>
</svg>
