<svg xmlns="http://www.w3.org/2000/svg" width="400" height="400.142" viewBox="0 0 400 400.142">
  <g id="Group_3" data-name="Group 3" transform="translate(-3548 -1488.858)">
    <g id="Rectangle_153" data-name="Rectangle 153" transform="translate(3548 1489)" fill="#fff" stroke="#707070" stroke-width="1" opacity="0">
      <rect width="400" height="400" stroke="none"/>
      <rect x="0.5" y="0.5" width="399" height="399" fill="none"/>
    </g>
    <g id="Слой_1" data-name="Слой 1" transform="translate(3707.226 1488.858)">
      <path id="Path_1" data-name="Path 1" d="M423.4,878.288c1.215,5.119.96,4.773-.994,9.6H375.264a21.024,21.024,0,0,1-3.506-15.713,31.538,31.538,0,0,1,13.35-5.72,109.7,109.7,0,0,1,17.557,2.713c5.321,1.215,10.887,2.757,16.606,4.5Z" transform="translate(-213.32 -487.766)" fill="#35495e"/>
      <path id="Path_2" data-name="Path 2" d="M395.848,689.283l10.421,11.237-1.441,7.612c-5.72-1.743-11.286-3.285-16.607-4.5l9.72-.72-9.72-12.582h3.8l-4.649-41.675-6.291-4.87,6.935-1.844c5.672-24.689,9.5-48.581,9.946-71.032l-4.428-13.447-32.373,19.891L343.69,582.2c16.237-5.22,35.826-18.3,56.668-34.26a163.733,163.733,0,0,1,3.8,22.7c-.96,24.463-4.97,49.723-11.261,75.536A171.241,171.241,0,0,0,395.848,689.283Z" transform="translate(-198.894 -322.21)" fill="#ab5818"/>
      <path id="Path_3" data-name="Path 3" d="M332.544,493.909l6.013,9.523-4.125,5.868c-20.837,15.963-40.426,29.04-56.668,34.26-9.124-.72-17.826-1.614-25.76-2.857-13.725-2.113-25.164-5.225-32.694-10l-1.518-.768-.922-3.506,18.374,4.6a223.232,223.232,0,0,0,37.247.792c9.1-2.137,18.849-7.011,28.944-13.178l-21.279,4.615a78.486,78.486,0,0,1,4.322-23.469l17.769-6.987-7.756-3.011,33.664-16.184,1.714,19.209Z" transform="translate(-132.978 -269.312)" fill="#4da9a3"/>
      <path id="Path_4" data-name="Path 4" d="M304.879,233.2c10.642,27.926,16.607,56.989,18.772,87a88.737,88.737,0,0,1-15.718,9.528,189.981,189.981,0,0,1-35.878,15.848c2.761-10.44,3.808-19.416,1.268-25.385a83.973,83.973,0,0,0,22.23-15.848,227.71,227.71,0,0,1-12.38-51.75l3.6,48.984c-4.2,4.774-8.822,8.082-13.97,9.749-4.106-1.743-7.636-3.8-9.946-6.565l5.071-8.9-10.143,5.537-3.842-27.1-4.97-1.042-.423-6.041L179,267.832c4.572-15.243,12.006-29.515,20.612-43.389,15.113,7.881,35.4,4.75,52.288-16.933.4,17.456,4.178,31.379,10.291,42.866,6.118-10.493,10.493-21.807,11.761-34.611,1.167.375,2.339.768,3.506,1.22a82.074,82.074,0,0,1,15.848,7.981Q298.881,228.669,304.879,233.2Z" transform="translate(-113.294 -120.304)" fill="#4da9a3"/>
      <path id="Path_5" data-name="Path 5" d="M393.549,567.76l4.428,13.447c-.447,22.451-4.274,46.343-9.946,71.032l-6.911,1.844,6.291,4.87,4.649,41.675h-3.8l9.72,12.582-9.72.72a109.688,109.688,0,0,0-17.557-2.713,31.536,31.536,0,0,0-13.351,5.72l-.62-6.041,7.2-7.088a420.489,420.489,0,0,1-9.9-46.866,442.2,442.2,0,0,1-2.536-55.227l-4.274.961-3.506-1.921V592.5l17.476-4.846Z" transform="translate(-198.91 -332.512)" fill="#d98518"/>
      <path id="Path_6" data-name="Path 6" d="M326.707,462l.48,5.571-33.664,16.184,7.756,3.011-17.769,6.987a79.993,79.993,0,0,0-4.322,23.469l21.356-4.61c-10.085,6.166-19.843,11.045-28.944,13.178A223.245,223.245,0,0,1,234.353,525l-18.374-4.6-.86-3.17h50.948l4.625-30.456a85.871,85.871,0,0,0,17.769-1.244,38.173,38.173,0,0,0,2.368-7.679A191.768,191.768,0,0,0,326.707,462Z" transform="translate(-132.068 -262.364)" fill="#49616e"/>
      <path id="Path_7" data-name="Path 7" d="M282.381,78.072l-5.643-4.351a230.613,230.613,0,0,0-14.349-29.294c4.8,10.119,8.8,19.392,11.117,26.826,5.22,15.07,8.476,30.336,8.875,45.853a82.072,82.072,0,0,0-15.848-7.981c-2.488-15.468-7.809-33.271-14.618-52.346,5.283,18.374,9.273,35.657,11.113,51.121-1.268,12.8-5.643,24.117-11.761,34.61-6.113-11.487-9.893-25.409-10.291-42.866.048-20.933-4.255-44.282-10.445-68.65-25.611,15.516-54.324,31.7-67.713,31.1L158,57.436c2.881-5.345,6.642-9.922,12.059-13,13.629-.922,28.521-7.285,44.037-16.184l-1.172-5.076c-8.678-4.351-17.288-7.309-25.707-7.107l-4.471-14.8C194.008.893,205,4.029,215.767,10.143L220.19,0q18.537,5.283,33.343,20.314C265.145,35.283,274.27,55.621,282.381,78.072Z" transform="translate(-102.379)" fill="#f3ac36"/>
      <path id="Path_8" data-name="Path 8" d="M358.918,301.38a227.492,227.492,0,0,0,12.38,51.74,83.974,83.974,0,0,1-22.23,15.848c-3.362-3.232-6.834-5.691-10.464-6.339a46.5,46.5,0,0,0-10.94,2.214L324.73,322l4.97,1.042,3.842,27.1,10.143-5.523-5.081,8.918c2.31,2.761,5.84,4.8,9.946,6.565,5.148-1.666,9.768-4.975,13.97-9.749Z" transform="translate(-189.04 -171.282)" fill="#49616e"/>
      <path id="Path_9" data-name="Path 9" d="M389.759,121.81l-3.232-2.464c-2.315-7.434-6.315-16.707-11.117-26.826A230.267,230.267,0,0,1,389.759,121.81Z" transform="translate(-211.975 -48.089)" fill="#e08c32"/>
      <path id="Path_10" data-name="Path 10" d="M368.238,170.591c-1.167-.451-2.339-.845-3.506-1.22-1.839-15.464-5.816-32.747-11.113-51.121C360.43,137.339,365.751,155.108,368.238,170.591Z" transform="translate(-199.691 -61.462)" fill="#e08c32"/>
      <path id="Path_11" data-name="Path 11" d="M331.41,460.182c-1.268.1-9.7.62-9.7.62l-8.476.3c-.149-1.887-.274-3.842-.327-5.691l10.618-1.119,6.517.543-4.6-2.209H312.864a35.151,35.151,0,0,1,.375-5.8,34.7,34.7,0,0,1,8.976-1.268l.8.077,1.066-3.482,9.773.3-8.438-3.366-11.117,1.59-1.244-.547a5.989,5.989,0,0,1,.821-4.8,36.823,36.823,0,0,1,7.636-4.125,46.506,46.506,0,0,1,10.925-2.2c3.631.648,7.083,3.107,10.464,6.339,2.54,5.969,1.494,14.945-1.268,25.385a38.176,38.176,0,0,1-2.358,7.655,85.962,85.962,0,0,1-17.769,1.244l-7.636-1.921c-.173-1.465-.322-3.107-.48-4.8h9S330.243,460.479,331.41,460.182Z" transform="translate(-177.861 -242.4)" fill="#ffd699"/>
      <path id="Path_12" data-name="Path 12" d="M334.043,453.362l-9.773-.3L323.2,456.55l-.8-.077.375-4.375a25.4,25.4,0,0,0-8.731,1.263,9.35,9.35,0,0,1-.821-2.339l1.244.547L325.606,450Z" transform="translate(-177.298 -252.652)" fill="#f0a873"/>
      <path id="Path_13" data-name="Path 13" d="M293.68,626.357l-8.9,2.036a207.739,207.739,0,0,0-13.154,51.567,293.646,293.646,0,0,0,2.368,52.067l4.322,2.4-.648,11.113-3.952-.643a61.693,61.693,0,0,1-32.992-12.582l27.565,6.176,3.362-3.607-2.939-2.584-4.255-44.383-8.3-10.791h8.529a402.083,402.083,0,0,0,9-53.753l-9.273-10.085c7.933,1.244,16.635,2.137,25.76,2.857V624.4Z" transform="translate(-138.265 -356.177)" fill="#ab5818"/>
      <path id="Path_14" data-name="Path 14" d="M330.068,480.4l-6.517-.543-10.6,1.124c-.024-.96-.048-1.892-.048-2.785h12.582Z" transform="translate(-176.864 -268.312)" fill="#f0a873"/>
      <path id="Path_15" data-name="Path 15" d="M331.843,493.93c-1.167.3-9.024,2.685-9.024,2.685h-8.98c-.048-.571-.1-1.172-.149-1.767l8.476-.3S330.575,494.026,331.843,493.93Z" transform="translate(-177.377 -277.133)" fill="#f0a873"/>
      <path id="Path_16" data-name="Path 16" d="M150.794,412.329c.149,1.714.3,3.362.48,4.8l7.636,1.921-4.653,30.485H103.308L13.024,446.7,9.518,408.286l14.124-2.214a60.394,60.394,0,0,0-.8-20.487l-7.756-.8,5.22-4.125c.048-2.564-.274-4.826-1.417-6.344a36.526,36.526,0,0,0-14.445.961L0,335.276l85.962-2.857,69.543-.648.423,6.041,2.934,42.842a36.82,36.82,0,0,0-7.636,4.125,5.989,5.989,0,0,0-.821,4.8,9.351,9.351,0,0,0,.821,2.339,25.4,25.4,0,0,1,8.731-1.268l-.375,4.375a34.7,34.7,0,0,0-8.976,1.268,35.15,35.15,0,0,0-.375,5.8c0,.893.024,1.815.048,2.785.053,1.863.178,3.8.327,5.691C150.674,411.158,150.726,411.758,150.794,412.329Z" transform="translate(0 -191.081)" fill="#f0a873"/>
      <path id="Path_17" data-name="Path 17" d="M249.518,64.56c6.19,24.367,10.493,47.716,10.445,68.674-16.885,21.683-37.175,24.814-52.288,16.933q-1.234-.634-2.4-1.345c-9.922-14.273-13.653-31.551-8.457-53.133C214.859,88.231,232.364,77.589,249.518,64.56Zm-12.9,30.01a26.729,26.729,0,0,0,8.577,0c-4.548-.519-13.749-3.362-18.321-6.19a12.813,12.813,0,0,0,4.447,3.731s-.893,7.607,2.612,7.607S236.614,94.57,236.614,94.57Zm-15.142,21.51c1.863-2.214-.571-9.4-.571-9.4-3.458-3.107-6.839-3.506-10.119-.773,0,0-2.958,7.708-1.023,10.171S219.633,118.293,221.472,116.08Zm-10.642,11.91a73.649,73.649,0,0,1,26.182,3.155,40.386,40.386,0,0,0-26.182-6.339Zm-3.4-33.194a17.716,17.716,0,0,0,4.846-4.452c-3.655,2.833-11.045,5.672-14.69,6.19a15.655,15.655,0,0,0,5.566.2s-.644,5.172,2.166,5.172S207.425,94.8,207.425,94.8Z" transform="translate(-112.507 -33.556)" fill="#ffd699"/>
      <path id="Path_18" data-name="Path 18" d="M249.5,602.5l9.273,10.085a402.091,402.091,0,0,1-9,53.753h-8.51l8.3,10.791,4.255,44.369,2.958,2.584-3.362,3.607-27.6-6.19h-.029c-1.441-1.095-2.781-2.238-4.125-3.458a365.156,365.156,0,0,1-9.393-49.181c-.644-28,.2-54.175,4.553-76.357C224.355,597.273,235.794,600.385,249.5,602.5Z" transform="translate(-121.421 -345.371)" fill="#d98518"/>
      <path id="Path_19" data-name="Path 19" d="M226.659,869.95l-3.184,11.434h-68.4c-3.179-4.125-5.143-8.553-4.774-13.5a130.26,130.26,0,0,0,39.211-13.975c1.345,1.22,2.709,2.363,4.125,3.458h.029A61.6,61.6,0,0,0,226.659,869.95Z" transform="translate(-87.548 -481.243)" fill="#35495e"/>
      <path id="Path_20" data-name="Path 20" d="M280.251,120.35a26.728,26.728,0,0,1-8.577,0s.8,5.148-2.684,5.148-2.612-7.607-2.612-7.607a12.813,12.813,0,0,1-4.447-3.731C266.5,116.993,275.7,119.846,280.251,120.35Z" transform="translate(-148.118 -59.336)" fill="#600003"/>
      <path id="Path_21" data-name="Path 21" d="M215.982,45.14l1.172,5.076c-16.611,7.357-32.473,12.8-45.992,12.28L163.92,48c8.164-4.351,17.529-5.916,27.623-5.72C198.727,42.138,207.107,43.3,215.982,45.14Z" transform="translate(-94.166 -21.968)" fill="#f3ac36"/>
      <path id="Path_22" data-name="Path 22" d="M235.813,64.56c-17.154,13.029-34.659,23.671-52.687,31.1-5.143,2.017-9.446,2.661-12.9,2.017l-2.113-2.017C181.5,96.26,210.2,80.076,235.813,64.56Z" transform="translate(-97.388 -33.556)" fill="#e08c32"/>
      <path id="Path_23" data-name="Path 23" d="M236.739,149.464s2.435,7.2.572,9.4-9.8,2.459-11.713,0,1.023-10.171,1.023-10.171C229.9,145.973,233.282,146.357,236.739,149.464Z" transform="translate(-126.958 -76.339)" fill="#f0835e"/>
      <path id="Path_24" data-name="Path 24" d="M254.712,196.1a73.649,73.649,0,0,0-26.182-3.155v-3.189A40.421,40.421,0,0,1,254.712,196.1Z" transform="translate(-129.632 -106.408)" fill="#f0835e"/>
      <path id="Path_25" data-name="Path 25" d="M225.028,58.82C209.512,67.719,194.62,74.082,180.991,75l-1.921-3.9C192.555,71.623,208.417,66.177,225.028,58.82Z" transform="translate(-102.484 -30.573)" fill="#e08c32"/>
      <path id="Path_26" data-name="Path 26" d="M244.507,40.522c-8.875-1.839-17.255-2.982-24.439-2.881L218.8,33.39C227.228,33.2,235.829,36.171,244.507,40.522Z" transform="translate(-124.089 -17.351)" fill="#e08c32"/>
      <path id="Path_27" data-name="Path 27" d="M215.63,118.25a17.716,17.716,0,0,1-4.846,4.452s.672,7.112-2.113,7.112-2.166-5.172-2.166-5.172a15.767,15.767,0,0,1-5.566-.2C204.595,123.922,211.976,121.083,215.63,118.25Z" transform="translate(-113.475 -61.462)" fill="#600003"/>
      <path id="Path_28" data-name="Path 28" d="M181.356,129.33c-5.2,21.582-1.441,38.861,8.457,53.133a130.459,130.459,0,0,1-21.039,27.277c-3.952-29.962-6.589-58.589-.322-78.393C171.91,131.99,176.213,131.347,181.356,129.33Z" transform="translate(-93.386 -67.221)" fill="#f3ac36"/>
      <path id="Path_29" data-name="Path 29" d="M26.1,438.482a60.394,60.394,0,0,1,.8,20.487l-14.124,2.214-1.59-.961,14.3-2.56.792-5.4-16.731,1.83c-.125-.519-.25-1.018-.375-1.542l16.362-3.53-.523-4.548-16.755,3.6c-.125-.519-.2-1.042-.274-1.566l16.434-4-.423-3.232H6.26c5.076-.9,10.969-3.011,17.288-5.72l-5.22,4.125Z" transform="translate(-3.254 -244.351)" fill="#f0a873"/>
      <path id="Path_30" data-name="Path 30" d="M29.831,472.54l-.792,5.4-14.3,2.56c-.6-2.089-1.148-4.125-1.642-6.142Z" transform="translate(-6.809 -265.371)" fill="#ffd699"/>
      <path id="Path_31" data-name="Path 31" d="M27.165,456.29l.523,4.548-16.362,3.53c-.346-1.518-.672-3.006-.917-4.476Z" transform="translate(-5.411 -256.251)" fill="#ffd699"/>
      <path id="Path_32" data-name="Path 32" d="M25.2,445.47l.423,3.232-16.434,4H9.166c-.25-1.489-.423-2.958-.576-4.375l2.4-2.857Z" transform="translate(-4.465 -250.138)" fill="#ffd699"/>
      <path id="Path_33" data-name="Path 33" d="M18.9,420c1.143,1.518,1.441,3.779,1.417,6.344a84.951,84.951,0,0,1-17.288,5.72A19.492,19.492,0,0,1,0,426.012a14.8,14.8,0,0,1,4.452-5.071A36.526,36.526,0,0,1,18.9,420Z" transform="translate(0 -235.862)" fill="#ffd699"/>
      <path id="Path_34" data-name="Path 34" d="M97.8,356.68l.61,20.65.2,6.853-2.382-6.853-7.175-20.65H83.92l.61,20.65.629,21.188h3.895V369.56l3.093,7.77L98.908,394.3l1.662,4.221h2.358V356.68Z" transform="translate(-47.468 -201.583)" fill="#49616e"/>
      <path id="Path_35" data-name="Path 35" d="M240.439,378.47l-.1-1.129c-1.8-17.956-11.6-20.319-13.144-20.578v-.034H222.06l.61,20.612.034,1.128.591,20.1h3.9c1.7-.077,13.447-1.1,13.447-15.219Q240.621,380.722,240.439,378.47Zm-13.245,16.294V361.321c4.361,1.974,7.3,8.932,8.2,16l.12,1.129c.831,8.755-1.542,17.279-8.318,16.294Z" transform="translate(-125.585 -201.612)" fill="#49616e"/>
      <path id="Path_36" data-name="Path 36" d="M135.095,382.891l10.186.307-.677-3.386h-9.509V361.372l13.96-.269.576-4.423H129.87l.144,4.788.475,15.824.034,1.129.043,1.393.562,18.705h18.5v-3.683l-14.537.288Z" transform="translate(-73.48 -201.583)" fill="#49616e"/>
      <path id="Path_37" data-name="Path 37" d="M180.225,382.891l10.186.307-.677-3.386h-9.509V361.372l13.96-.269.581-4.423H175l.144,4.788.475,15.824.034,1.129.043,1.393.562,18.705h18.508v-3.683l-14.542.288Z" transform="translate(-99.015 -201.583)" fill="#49616e"/>
      <path id="Path_38" data-name="Path 38" d="M141.655,487.021l10.186.3-.677-3.386h-9.509V465.5l13.96-.269.581-4.418H136.43l.144,4.788.475,15.824.034,1.129.043,1.388.562,18.71H156.2v-3.683l-14.542.288Z" transform="translate(-77.192 -260.434)" fill="#49616e"/>
      <path id="Path_39" data-name="Path 39" d="M104.507,460.81l.61,20.612.034,1.129.086,2.973H95.354V460.81H90.22l.61,20.612.034,1.129.6,20.1h3.895V488.932l9.979-.163.413,13.879h3.895V460.81Z" transform="translate(-51.04 -260.434)" fill="#49616e"/>
      <path id="Path_40" data-name="Path 40" d="M188.489,499.248V460.81H183.36l.591,20.083.034,1.129.61,20.626h16.823v-3.683Z" transform="translate(-103.677 -260.434)" fill="#49616e"/>
      <path id="Path_41" data-name="Path 41" d="M229.914,460.839v-.029H224.78l.586,20.083.034,1.129.61,20.626H229.9V493.1a34.225,34.225,0,0,0,9.6-11.079l.523-1.129a17.289,17.289,0,0,0,1.527-7.9C240.969,462.524,231.7,461.031,229.914,460.839Zm4.615,21.193a24.809,24.809,0,0,1-4.615,7.324V465.464c6.642.908,7.588,8.332,5.047,15.43Z" transform="translate(-127.037 -260.434)" fill="#49616e"/>
    </g>
  </g>
</svg>
